<?xml version="1.0" encoding="utf-8"?>
<!-- Generator: Adobe Illustrator 19.2.1, SVG Export Plug-In . SVG Version: 6.00 Build 0)  -->
<svg version="1.1" id="Layer_4" xmlns="http://www.w3.org/2000/svg" xmlns:xlink="http://www.w3.org/1999/xlink" x="0px" y="0px"
	 viewBox="0 0 171.1 92.3" style="enable-background:new 0 0 171.1 92.3;" xml:space="preserve">
<style type="text/css">
	.st0{fill:#98247F;}
</style>
<title>llc</title>
<g>
	<path d="M30.6,5.2c0-2.9-0.5-3-1-3s-1.1,0.2-1.9,0.2c-0.6,0-1.2-0.4-1.2-1.1c0,0,0-0.1,0-0.1c0.1-0.8,0.8-1.4,1.6-1.3c0,0,0,0,0,0
		c1.1,0,1.7,0.4,2.4,0.4c0.9,0,1.2-0.4,1.9-0.4c0.9,0,1,0.6,1,1.8v17.9c0,2.6,0.4,3,1,3s1.1-0.2,1.6-0.2c0.6,0,1.2,0.4,1.2,1.1
		c0,0,0,0.1,0,0.1c-0.1,0.8-0.7,1.4-1.5,1.3c-1.2,0-1.9-0.4-3.6-0.4S29.5,25,28.3,25c-0.8,0.1-1.5-0.5-1.5-1.3
		c0-0.6,0.5-1.2,1.1-1.2c0,0,0.1,0,0.1,0c0.5,0,1,0.2,1.6,0.2c0.9,0,1-1,1-3L30.6,5.2L30.6,5.2z"/>
	<path d="M44.5,23c2.6,0.4,5-1.4,5.3-4c0.1-0.4,0.1-0.9,0-1.3c0-0.8,0-1.5,0.1-2.3c-1.3,1.3-3.3,1.4-5,1.5c-1.9,0.2-4.1,0.6-4.1,3.1
		C40.8,22.2,42.6,23,44.5,23 M52.6,19.2c0,1.1-0.4,3.9,1.4,3.9c1.5,0,1.3-2.3,1.3-3.3s-0.1-2.1,1.1-2.1c0.6-0.1,1.2,0.4,1.3,1.1
		c0,0.1,0,0.2,0,0.4c0,2.7,0,3.9-0.7,4.9c-0.8,0.9-1.9,1.4-3.1,1.3c-1.7,0-3.3-0.8-3.6-2.5c-1.2,2-3.5,2.7-5.7,2.7
		c-1.5,0.1-2.9-0.3-4.2-1c-1.5-0.9-2.4-2.5-2.4-4.2c-0.1-1.8,0.8-3.6,2.4-4.5c1.5-0.8,3.1-1.2,4.7-1.3c2.1-0.2,4.9-0.2,4.9-2.8
		c0-2.4-1.9-3.2-4-3.2c-1,0-1.9,0.3-2.7,0.8c-0.4,0.2-0.7,0.5-0.8,0.9c0.5,0.3,0.9,0.8,0.9,1.5c0,1-0.9,1.7-1.8,1.7c0,0-0.1,0-0.1,0
		c-1.2,0-2.2-1-2.2-2.2c0,0,0,0,0-0.1c0.1-1.5,0.9-2.9,2.2-3.6c1.4-0.9,3-1.3,4.7-1.3c1.7-0.1,3.4,0.4,4.9,1.4
		c1.7,1.3,2,3.3,1.9,5.4L52.6,19.2z"/>
	<path d="M61.6,15.8c0,3.5,1.6,7.2,5.5,7.2c1.8,0.1,3.5-0.8,4.4-2.4c0.6-1.6,0.9-3.3,0.8-5c0-1.7-0.1-3.7-1.1-5.1
		c-1-1.3-2.6-2.1-4.2-2C62.8,8.5,61.5,12.4,61.6,15.8 M74.9,19.7c0,2.5,0.3,3,1,3s1.1-0.2,1.6-0.2c0.6,0,1.2,0.5,1.2,1.1
		c0,0,0,0,0,0.1c0.1,0.7-0.4,1.3-1.1,1.3c0,0,0,0-0.1,0c-0.6,0-1.3-0.4-2.1-0.4S74.4,25,73.6,25s-1.2-0.4-1.2-1.7V23h0
		c-1.1,1.8-3.4,2.5-5.4,2.5c-5.6,0-8.2-4.7-8.2-9.8s2.6-9.6,8-9.6c2.2-0.2,4.3,0.9,5.5,2.7h0.1V5.3c0-2.6-0.4-3-1-3S70,2.5,69.5,2.5
		c-0.6,0-1.2-0.4-1.2-1.1c0,0,0-0.1,0-0.1C68.4,0.6,69,0,69.7,0c1,0,1.5,0.4,2.5,0.4S73.6,0,74.3,0c0.4,0,0.6,0.3,0.6,1.5L74.9,19.7
		L74.9,19.7z"/>
	<path d="M86.3,2.7c0,1.1-0.9,2-2,2s-2-0.9-2-2s0.9-2,2-2S86.3,1.5,86.3,2.7 M83.5,11.8c0-2.5-0.2-3-1-3c-0.6,0-1.1,0.2-1.6,0.2
		c-0.6,0-1.2-0.5-1.2-1.1c0,0,0-0.1,0-0.1c0-0.7,0.5-1.3,1.1-1.3c0,0,0.1,0,0.1,0c1,0,1.5,0.4,2.3,0.4s1.4-0.4,2-0.4s1,0.8,1,1.5
		v13.2c0,0.9,0.3,1.5,0.9,1.5c0.5-0.1,0.9-0.2,1.4-0.2c0.6,0,1.2,0.4,1.2,1.1c0,0,0,0.1,0,0.1c-0.1,0.8-0.7,1.4-1.5,1.3
		c-1.2,0-2.1-0.4-3.6-0.4s-2.5,0.4-3.8,0.4c-0.7-0.1-1.2-0.6-1.2-1.3c0-0.6,0.5-1.2,1.1-1.2c0,0,0.1,0,0.1,0c0.5,0,1,0.2,1.6,0.2
		c0.8,0,1-0.8,1-3L83.5,11.8L83.5,11.8z"/>
	<path d="M104.7,13.6c-0.2-2.9-1.8-5.1-5-5.1c-2.9-0.1-5.3,2.2-5.5,5.1H104.7L104.7,13.6z M93.9,16.1c-0.1,3.6,1.8,6.9,5.7,6.9
		c2.3,0.2,4.3-1.3,4.9-3.5c0.2-0.7,0.4-1.6,1.3-1.6c0.7,0,1.4,0.5,1.4,1.3c0,0,0,0.1,0,0.1c-0.2,1.6-0.9,3-2.1,4.1
		c-1.6,1.4-3.7,2.1-5.8,2c-5.6,0-8.4-4.1-8.4-9.4c-0.1-2.5,0.7-4.9,2.1-6.9c1.6-2,4-3.1,6.5-3.1c4.3-0.1,7.9,3.2,8,7.5
		c0,0.2,0,0.4,0,0.7c0,1.8,0,1.9-1.7,1.9L93.9,16.1L93.9,16.1z"/>
	<path d="M110.9,11.7c0-3.8,3.4-5.7,6.9-5.7c1.5-0.1,3,0.3,4.2,1.2c-0.2-0.6,0.1-1.2,0.7-1.4c0.1,0,0.3-0.1,0.4-0.1
		c0.6-0.1,1.1,0.4,1.2,1c0,0.1,0,0.1,0,0.2c0,0.9-0.2,1.7-0.2,2.6s0.2,1.8,0.2,2.6c0.1,0.7-0.5,1.3-1.1,1.3c-0.1,0-0.1,0-0.2,0
		c-0.7,0-1.1-0.5-1.1-1.7c0-1.4-0.1-1.6-0.8-2.1c-1-0.7-2.1-1.2-3.3-1.3c-1.8,0-4,1-4,3.1c0,1.7,1.2,2.3,4.2,2.7
		c4.8,0.6,7.3,1.6,7.3,5.4c0,4-3.8,5.8-7.3,5.8c-1.8,0.1-3.7-0.5-5.1-1.7c0.2,1.3-0.4,2-1.2,2c-0.7,0-1.3-0.6-1.4-1.3
		c0-0.1,0-0.1,0-0.2c0-1,0.3-2,0.3-3s-0.3-1.9-0.3-2.8c-0.1-0.6,0.4-1.2,1-1.3c0.1,0,0.1,0,0.2,0c0.5-0.1,1,0.3,1.1,0.9
		c0,0.1,0,0.2,0,0.3c0.2,2.1,0.2,2.5,1,3.2c1.4,1,3,1.5,4.7,1.5c1,0.1,2-0.2,2.9-0.8c0.7-0.5,1.2-1.4,1.2-2.3c0-2.2-2-2.7-3.8-2.9
		C115.3,16.6,111,16.1,110.9,11.7"/>
	<path d="M30.6,38.7c0-2.9-0.5-3-1-3S28.5,36,27.7,36c-0.6,0-1.2-0.5-1.2-1.1c0,0,0,0,0-0.1c0.1-0.8,0.8-1.4,1.6-1.3c0,0,0,0,0,0
		c1.1,0,1.7,0.4,2.4,0.4c0.9,0,1.2-0.4,1.9-0.4c0.9,0,1,0.6,1,1.8v17.9c0,2.6,0.4,3,1,3S35.5,56,36,56c0.6,0,1.2,0.5,1.2,1.1
		c0,0,0,0.1,0,0.1c-0.1,0.8-0.7,1.4-1.5,1.3c-1.2,0-1.9-0.4-3.6-0.4s-2.5,0.4-3.8,0.4c-0.8,0.1-1.5-0.5-1.5-1.3
		c0-0.6,0.5-1.2,1.1-1.2c0,0,0.1,0,0.1,0c0.5,0,1,0.2,1.6,0.2c0.9,0,1-1,1-3L30.6,38.7L30.6,38.7z"/>
	<path d="M50.9,47c-0.2-2.9-1.8-5.1-5-5.1c-2.9-0.1-5.3,2.2-5.4,5.1H50.9z M40.2,49.6c-0.1,3.6,1.8,6.9,5.7,6.9
		c2.3,0.2,4.3-1.3,4.9-3.5c0.2-0.8,0.4-1.6,1.4-1.6c0.7,0,1.4,0.5,1.4,1.3c0,0,0,0.1,0,0.1c-0.2,1.6-0.9,3-2.1,4.1
		c-1.6,1.4-3.7,2.1-5.8,2c-5.6,0-8.4-4.1-8.4-9.4c-0.1-2.5,0.7-4.9,2.1-6.9c1.6-2,4-3.1,6.5-3.1c4.3-0.1,7.9,3.2,8,7.5
		c0,0.2,0,0.4,0,0.7c0,1.8,0,1.9-1.7,1.9L40.2,49.6L40.2,49.6z"/>
	<path d="M61.8,56.5c2.6,0.4,5-1.5,5.3-4c0.1-0.4,0.1-0.8,0-1.3c0-0.7,0-1.5,0.1-2.3c-1.3,1.3-3.3,1.4-5,1.5
		c-1.9,0.2-4.1,0.6-4.1,3.1C58.1,55.6,59.9,56.5,61.8,56.5 M70,52.7c0,1.1-0.4,3.9,1.3,3.9c1.5,0,1.3-2.3,1.3-3.3s-0.1-2.1,1.1-2.1
		c0.7,0,1.2,0.4,1.3,1.1c0,0.1,0,0.2,0,0.4c0,2.7,0,3.9-0.7,4.9c-0.8,0.9-1.9,1.4-3.1,1.3c-1.7,0-3.3-0.8-3.6-2.5
		c-1.2,2-3.5,2.7-5.7,2.7c-1.5,0.1-2.9-0.3-4.2-1c-1.5-0.9-2.4-2.5-2.4-4.2c-0.1-1.8,0.8-3.6,2.4-4.5c1.5-0.8,3.1-1.2,4.8-1.3
		c2.1-0.2,4.9-0.2,4.9-2.8c0-2.4-1.9-3.2-4-3.2c-1,0-1.9,0.3-2.7,0.8c-0.4,0.2-0.7,0.5-0.8,0.9c0.5,0.3,0.9,0.8,0.9,1.5
		c0,1-0.9,1.7-1.8,1.7c0,0-0.1,0-0.1,0c-1.2,0-2.2-1-2.2-2.2c0,0,0,0,0-0.1c0.1-1.5,0.9-2.9,2.2-3.6c1.4-0.9,3-1.3,4.7-1.3
		c1.7-0.1,3.4,0.4,4.9,1.4c1.7,1.4,2,3.3,2,5.4L70,52.7z"/>
	<path d="M79.7,45.2c0-2.4-0.3-3-1.1-3c-0.6,0-1.1,0.2-2,0.2c-0.6,0-1.2-0.5-1.2-1.1c0,0,0,0,0-0.1c0.1-0.8,0.8-1.4,1.6-1.3
		c0,0,0,0,0,0c0.7,0,1.2,0.4,2.1,0.4s1.3-0.4,2-0.4c0.9,0,1,0.7,1,2.2h0.1c1.1-1.7,3-2.8,5-2.7c3,0,5.7,1.8,5.7,5
		c0,1.8-0.8,3.6-3,3.6c-1,0.1-1.8-0.7-1.9-1.7c0-0.8,0.6-1.5,1.5-1.5c0.2,0,0.3,0.1,0.5,0.1c0.1-0.2,0.2-0.5,0.2-0.8
		c0-1.6-1.7-2.5-3.1-2.5c-2.7,0-4.5,1.6-4.5,6.7v4.7c0,2.6,0.5,3,1.1,3s1.1-0.2,1.6-0.2c0.6,0,1.2,0.4,1.2,1.1c0,0,0,0.1,0,0.1
		c-0.1,0.8-0.7,1.4-1.5,1.3c-1.2,0-2.2-0.4-3.6-0.4s-2.3,0.4-3.8,0.4c-0.8,0.1-1.5-0.5-1.6-1.3c0,0,0,0,0,0c0-0.6,0.5-1.1,1.1-1.2
		c0,0,0.1,0,0.1,0c0.5,0,1,0.2,1.6,0.2c0.8,0,1-0.5,1-3L79.7,45.2L79.7,45.2z"/>
	<path d="M97.4,45.2c0-2.4-0.2-3-1-3c-0.6,0-1.1,0.2-1.6,0.2c-0.6,0-1.2-0.5-1.2-1.1c0,0,0,0,0-0.1c0.1-0.7,0.6-1.2,1.3-1.3
		c0.7,0,1,0.4,1.9,0.4S98.1,40,99,40s0.8,0.8,0.8,2.1h0.1c1.5-1.8,3.6-2.7,5.9-2.6c1.9,0,3.7,0.7,5.1,1.9c1.6,1.4,1.6,3.2,1.6,5.2
		v6.6c0,2.2,0.2,3,1,3c0.6,0,1.1-0.2,1.6-0.2c0.6,0,1.2,0.4,1.2,1.1c0,0,0,0.1,0,0.1c0,0.7-0.6,1.3-1.3,1.3c-0.1,0-0.2,0-0.3,0
		c-1.2,0-2-0.4-3.6-0.4s-2.5,0.4-3.8,0.4c-0.7,0.1-1.4-0.3-1.5-1c0-0.1,0-0.2,0-0.3c0-0.6,0.5-1.2,1.1-1.2c0,0,0.1,0,0.1,0
		c0.5,0,1,0.2,1.6,0.2c0.9,0,1-0.8,1-3v-5.2c0-2.3,0-3-0.6-4.1c-0.8-1.3-2.3-2.1-3.9-2c-1.7-0.1-3.3,0.7-4.3,2
		c-0.4,0.7-0.9,1.5-0.9,5v4.2c0,2.2,0.2,3,1,3c0.6,0,1.1-0.2,1.6-0.2c0.6,0,1.2,0.5,1.2,1.1c0,0,0,0,0,0.1c0,0.7-0.6,1.3-1.3,1.3
		c-0.1,0-0.2,0-0.2,0c-1.2,0-2-0.4-3.6-0.4s-2.5,0.4-3.8,0.4c-0.7,0.1-1.4-0.4-1.5-1.1c0-0.1,0-0.2,0-0.2c0-0.6,0.5-1.2,1.1-1.2
		c0,0,0,0,0.1,0c0.5,0,1,0.2,1.6,0.2c0.9,0,1-0.8,1-3v-7.9L97.4,45.2z"/>
	<path d="M123.9,36.1c0,1.1-0.9,2-2,2s-2-0.9-2-2s0.9-2,2-2S123.9,35,123.9,36.1 M121.1,45.2c0-2.5-0.2-3-1-3
		c-0.6,0-1.1,0.2-1.6,0.2c-0.6,0-1.2-0.4-1.2-1.1c0,0,0-0.1,0-0.1c0-0.7,0.5-1.3,1.1-1.3c0,0,0.1,0,0.1,0c1,0,1.5,0.4,2.3,0.4
		s1.4-0.4,2-0.4s1,0.8,1,1.5v13.2c0,0.9,0.3,1.5,0.9,1.5c0.5-0.1,0.9-0.2,1.4-0.2c0.6,0,1.2,0.4,1.2,1.1c0,0,0,0.1,0,0.1
		c-0.1,0.8-0.7,1.4-1.5,1.3c-1.2,0-2.1-0.4-3.6-0.4s-2.5,0.4-3.8,0.4c-0.7-0.1-1.2-0.6-1.2-1.3c0-0.6,0.5-1.1,1.1-1.2
		c0,0,0.1,0,0.1,0c0.5,0,1,0.2,1.6,0.2c0.8,0,1-0.8,1-3L121.1,45.2L121.1,45.2z"/>
	<path d="M132.4,45.2c0-2.4-0.2-3-1-3c-0.6,0-1.1,0.2-1.6,0.2c-0.6,0-1.2-0.5-1.2-1.1c0,0,0,0,0-0.1c0.1-0.7,0.6-1.2,1.3-1.3
		c0.7,0,1,0.4,1.9,0.4s1.4-0.4,2.2-0.4s0.8,0.8,0.8,2.1h0.1c1.5-1.8,3.6-2.7,5.9-2.6c1.9,0,3.7,0.7,5.1,1.9c1.6,1.4,1.6,3.2,1.6,5.2
		v6.6c0,2.2,0.2,3,1,3c0.6,0,1.1-0.2,1.6-0.2c0.6,0,1.2,0.4,1.2,1.1c0,0,0,0.1,0,0.1c0,0.7-0.6,1.3-1.3,1.3c-0.1,0-0.2,0-0.2,0
		c-1.2,0-2-0.4-3.6-0.4s-2.5,0.4-3.8,0.4c-0.7,0.1-1.4-0.3-1.5-1c0-0.1,0-0.2,0-0.2c0-0.6,0.5-1.2,1.1-1.2c0,0,0.1,0,0.1,0
		c0.5,0,1,0.2,1.6,0.2c0.9,0,1-0.8,1-3v-5.2c0-2.3,0-3-0.6-4.1c-0.8-1.3-2.3-2.1-3.9-2c-1.7-0.1-3.3,0.7-4.3,2
		c-0.4,0.7-0.9,1.5-0.9,5v4.2c0,2.2,0.2,3,1,3c0.6,0,1.1-0.2,1.6-0.2c0.6,0,1.2,0.5,1.2,1.1c0,0,0,0,0,0.1c0,0.7-0.6,1.3-1.3,1.3
		c-0.1,0-0.2,0-0.2,0c-1.2,0-2-0.4-3.6-0.4s-2.5,0.4-3.8,0.4c-0.7,0.1-1.4-0.4-1.5-1.1c0-0.1,0-0.2,0-0.2c0-0.6,0.5-1.2,1.1-1.2
		c0,0,0,0,0.1,0c0.5,0,1,0.2,1.6,0.2c0.9,0,1-0.8,1-3L132.4,45.2L132.4,45.2z"/>
	<path d="M165.1,45.4c-0.1-2.1-2-3.8-4.1-3.6c-2.1-0.1-3.9,1.4-4,3.5c0,0.1,0,0.1,0,0.2c0,2.3,1.8,3.6,4,3.6S165.1,47.8,165.1,45.4
		 M156.6,56.8c-1.1,0.4-1.8,1.4-1.9,2.6c0.1,1.3,1.1,2.4,2.3,2.7c1.2,0.4,2.5,0.5,3.8,0.5c2,0,6.2-0.5,6.2-3.3s-3.9-3.2-6-3.2
		C159.5,56.1,158,56.3,156.6,56.8 M159.9,53.6c2-0.1,4,0.2,5.9,0.7c2.2,0.7,4.1,2.4,4.1,5c0,4.5-5.6,5.7-9.1,5.7s-9-1-9-5.5
		c0-2,1.4-3.7,3.3-4.2v-0.1c-1.7-0.6-3-1.5-3-3.4c0-1.7,1.3-3.2,3-3.6c-0.7-0.9-1-2-1-3.1c0-3.7,3.4-5.7,6.8-5.7
		c0.7,0,1.4,0.1,2.1,0.2c-0.1-2.3,2-3.6,4.1-3.6c1.9,0,4,1.1,4,3.2c0,1.1-0.8,2-1.9,2c-0.8,0-1.4-0.6-1.4-1.4
		c0.1-0.5,0.3-0.9,0.8-1.2c-0.3-0.5-0.9-0.7-1.5-0.7c-1.4,0-2,1.1-2,2.4c1.7,1.1,2.8,3,2.8,5c0,3.8-3.3,6-6.7,6
		c-1.4-0.1-2.8-0.4-4.1-1c-0.3-0.1-0.7-0.2-1-0.2c-0.8,0.1-1.3,0.7-1.3,1.5c0,1.7,2.4,1.8,3.7,1.8L159.9,53.6L159.9,53.6z"/>
	<path d="M39.9,86.5c0.2-1,0.4-2.2,1.6-2.2c0.8,0,1.4,0.6,1.4,1.4c-0.2,1.6-0.9,3.1-1.9,4.4c-1.5,1.5-3.5,2.4-5.7,2.3
		c-5.4,0-8.2-4.4-8.2-9.4c0-5.5,2.8-10.1,8.7-10.1c1.5,0,3,0.4,4.3,1.3c1.4,1,2.3,2.5,2.4,4.2c0,1.7-0.8,3.2-2.7,3.2
		c-1.1,0-2-0.8-2.1-1.9c0,0,0,0,0,0c0-0.9,0.9-1.7,1.8-1.6c0,0,0,0,0,0c-0.1-1.8-2.3-2.8-3.9-2.8c-4,0-5.6,3.8-5.6,7.3
		s1.3,7.3,5.4,7.3C37.6,90,39.4,88.5,39.9,86.5"/>
	<path d="M53.2,89.9c4.4,0,5.8-3.8,5.8-7.5c0-1.8-0.4-3.5-1.3-5c-1-1.4-2.6-2.1-4.3-2c-1.8-0.1-3.6,0.8-4.5,2.4
		c-0.8,1.5-1.2,3.1-1.2,4.8C47.7,86.1,49,90,53.2,89.9 M53.2,73c2.5-0.2,4.9,0.8,6.5,2.7c1.5,2,2.3,4.4,2.2,6.9c0,5.4-3,9.8-8.8,9.8
		s-8.4-4.5-8.4-9.7S47.5,73,53.2,73"/>
	<path d="M66.5,82.7c0,3.5,1.6,7.2,5.5,7.2c1.8,0.1,3.5-0.9,4.4-2.5c0.6-1.6,0.9-3.3,0.8-5c0-1.7-0.1-3.7-1.1-5.1
		c-1-1.3-2.6-2.1-4.2-2C67.7,75.4,66.5,79.3,66.5,82.7 M79.9,86.6c0,2.4,0.3,3,1,3s1.1-0.2,1.6-0.2c0.6,0,1.2,0.5,1.2,1.1
		c0,0,0,0,0,0.1c0.1,0.7-0.5,1.3-1.1,1.3c0,0,0,0,0,0c-0.6,0-1.3-0.4-2.1-0.4s-1.1,0.4-1.9,0.4s-1.2-0.4-1.2-1.7v-0.5h0
		c-1.1,1.8-3.4,2.5-5.5,2.5c-5.6,0-8.2-4.7-8.2-9.8s2.6-9.6,8-9.6c2.2-0.2,4.3,0.9,5.5,2.7h0.1v-3.4c0-2.6-0.4-3-1-3
		s-1.1,0.2-1.6,0.2c-0.6,0-1.2-0.4-1.2-1.1c0,0,0-0.1,0-0.1c0-0.7,0.6-1.3,1.3-1.3c1,0,1.5,0.4,2.5,0.4s1.4-0.4,2.1-0.4
		c0.4,0,0.6,0.3,0.6,1.5v18.2L79.9,86.6z"/>
	<path d="M98,80.5c-0.2-2.9-1.8-5.1-5-5.1c-2.9-0.1-5.3,2.2-5.5,5.1H98L98,80.5z M87.2,83c-0.1,3.6,1.8,6.9,5.7,6.9
		c2.3,0.2,4.3-1.3,4.9-3.5c0.2-0.7,0.4-1.6,1.4-1.6c0.7,0,1.4,0.5,1.4,1.3c0,0,0,0.1,0,0.1c-0.2,1.6-0.9,3-2.1,4.1
		c-1.6,1.4-3.7,2.1-5.8,2c-5.6,0-8.4-4.1-8.4-9.4c-0.1-2.5,0.7-4.9,2.1-6.9c1.6-2,4-3.1,6.5-3.1c4.8,0,8,3.4,8,8.2
		c0,1.8,0,1.9-1.7,1.9L87.2,83L87.2,83z"/>
	<path class="st0" d="M10.8,17.2l-3.6-3.6l3.6-3.6l3.6,3.6L10.8,17.2z M17.6,13.6l3.8-3.8c0.4-0.5,0.2-1.2-0.3-1.6
		c-0.4-0.3-0.9-0.3-1.3,0L16,12l-3.6-3.6l3.8-3.8c0.4-0.5,0.2-1.2-0.3-1.6c-0.4-0.3-0.9-0.3-1.3,0l-3.8,3.8L7.1,3.1
		c-0.4-0.4-1.2-0.4-1.6,0S5,4.2,5.5,4.7l0,0l3.7,3.7L5.6,12L1.9,8.3C1.4,7.9,0.7,7.9,0.3,8.4c-0.4,0.4-0.4,1.1,0,1.5L4,13.6
		l-3.7,3.7c-0.4,0.4-0.4,1.2,0,1.6s1.2,0.4,1.6,0l3.7-3.7l3.6,3.6l-3.7,3.7c-0.4,0.4-0.4,1.2,0,1.6s1.2,0.4,1.6,0l3.7-3.7l3.8,3.8
		c0.5,0.4,1.2,0.2,1.6-0.3c0.3-0.4,0.3-0.9,0-1.3l-3.8-3.8l3.6-3.6l3.8,3.8c0.5,0.4,1.2,0.2,1.6-0.3c0.3-0.4,0.3-0.9,0-1.3
		L17.6,13.6z"/>
</g>
</svg>
